<svg xmlns="http://www.w3.org/2000/svg" viewBox="0 0 55.93 55.69"><defs>
<style>.cls-1{fill:#ffffff;}</style>
</defs><title>me</title><g id="Layer_2" data-name="Layer 2"><g id="Ñëîé_1" data-name="Ñëîé 1"><path class="cls-1" d="M11.05,55.69h0a.91.91,0,0,1-.87-.94l.59-14.47a.91.91,0,0,1,1.82.08L12,54.82A.9.9,0,0,1,11.05,55.69Z"/><path class="cls-1" d="M44.89,55.69a.91.91,0,0,1-.91-.87l-.59-14.46a.91.91,0,1,1,1.81-.08l.59,14.47a.9.9,0,0,1-.87.94Z"/><path class="cls-1" d="M50.63,55.69H5.3A5.31,5.31,0,0,1,0,49.82l1.7-15.73a8.41,8.41,0,0,1,8.36-7.23H23.54a.91.91,0,0,1,.9,1L24.32,29a4.6,4.6,0,0,0,.82,3,3.68,3.68,0,0,0,5.63,0,4.6,4.6,0,0,0,.82-3l-.12-1.12a.91.91,0,0,1,.9-1H45.85a8.4,8.4,0,0,1,8.35,7.19l1.7,15.77a5.29,5.29,0,0,1-5.27,5.87Zm-40.54-27a6.59,6.59,0,0,0-6.56,5.64L1.84,50a3.44,3.44,0,0,0,.87,2.7A3.5,3.5,0,0,0,5.3,53.88H50.63A3.49,3.49,0,0,0,54.1,50L52.4,34.28a6.58,6.58,0,0,0-6.55-5.6H33.39v.11a6.44,6.44,0,0,1-1.24,4.33,5.51,5.51,0,0,1-8.41,0,6.44,6.44,0,0,1-1.24-4.33v-.11Z"/><path class="cls-1" d="M28,35.07A5.5,5.5,0,0,1,22.49,29l.65-5.72a.9.9,0,0,1,1.15-.77,9.61,9.61,0,0,0,2.58.36H29a9.61,9.61,0,0,0,2.58-.36.9.9,0,0,1,1.15.77L33.42,29h0A5.5,5.5,0,0,1,28,35.07ZM24.83,24.46l-.53,4.7a3.68,3.68,0,1,0,7.31,0l-.53-4.7a11.73,11.73,0,0,1-2,.19H26.87A11.73,11.73,0,0,1,24.83,24.46Z"/><path class="cls-1" d="M29,24.65H26.87A11.28,11.28,0,0,1,15.63,13.41V9.47A9.48,9.48,0,0,1,25.1,0h5.71a9.48,9.48,0,0,1,9.47,9.47v3.94A11.28,11.28,0,0,1,29,24.65ZM25.1,1.82a7.66,7.66,0,0,0-7.65,7.65v3.94a9.47,9.47,0,0,0,6.84,9.06,9.61,9.61,0,0,0,2.58.36H29a9.61,9.61,0,0,0,2.58-.36,9.47,9.47,0,0,0,6.84-9.06V9.47a7.66,7.66,0,0,0-7.65-7.65Z"/></g></g></svg>