<svg xmlns="http://www.w3.org/2000/svg" viewBox="0 0 55.4 55.4"><defs><style>.cls-1{fill:#4169e1;}</style></defs><title>skills</title><g id="Layer_2" data-name="Layer 2"><g id="Ñëîé_1" data-name="Ñëîé 1"><path class="cls-1" d="M25.34,39.09a1,1,0,0,1-.65-.27L13.9,28a.89.89,0,0,1,0-1.28L17.66,23a.93.93,0,0,1,1.28,0l6.4,6.39L36.46,18.25a.91.91,0,0,1,1.28,0L41.5,22a.91.91,0,0,1,.27.64.93.93,0,0,1-.27.65L26,38.82A.91.91,0,0,1,25.34,39.09ZM15.82,27.38l9.52,9.51L39.58,22.65,37.1,20.18,26,31.3a.94.94,0,0,1-1.29,0L18.3,24.9Z"/><path class="cls-1" d="M27.7,55.4A4.86,4.86,0,0,1,24.25,54a3,3,0,0,0-3.34-.66,4.89,4.89,0,0,1-6.38-2.62l0-.1a3.05,3.05,0,0,0-2.82-1.88h-.11a4.89,4.89,0,0,1-4.88-4.88A3.06,3.06,0,0,0,4.79,41a4.88,4.88,0,0,1-2.66-6.36l0-.1a3,3,0,0,0-.67-3.32l-.08-.08a4.89,4.89,0,0,1,0-6.89,3,3,0,0,0,.65-3.35A4.88,4.88,0,0,1,4.7,14.54l.11,0a3,3,0,0,0,1.87-2.82v-.11a4.88,4.88,0,0,1,4.88-4.87,3.07,3.07,0,0,0,2.83-1.9,4.88,4.88,0,0,1,6.36-2.66l.1,0a3.05,3.05,0,0,0,3.32-.66l.08-.08a4.88,4.88,0,0,1,6.9,0,3,3,0,0,0,3.34.66,4.88,4.88,0,0,1,6.38,2.62l0,.1a3.05,3.05,0,0,0,2.82,1.88h.11a4.87,4.87,0,0,1,4.87,4.87,3,3,0,0,0,1.9,2.83,4.88,4.88,0,0,1,2.66,6.36l0,.1a3.07,3.07,0,0,0,.66,3.33l.08.08a4.88,4.88,0,0,1,0,6.89h0a3,3,0,0,0-.66,3.34,4.87,4.87,0,0,1-2.61,6.38l-.1,0a3,3,0,0,0-1.89,2.82v.11a4.88,4.88,0,0,1-4.87,4.88A3,3,0,0,0,41,50.61a4.87,4.87,0,0,1-6.36,2.66l-.1,0a3.05,3.05,0,0,0-3.33.67l-.07.07A4.83,4.83,0,0,1,27.7,55.4Zm-5.6-4.14a4.9,4.9,0,0,1,3.44,1.43,3.06,3.06,0,0,0,4.32,0l.08-.08a4.87,4.87,0,0,1,5.3-1.06l.1,0a3.06,3.06,0,0,0,4-1.67,4.88,4.88,0,0,1,4.51-3,3.06,3.06,0,0,0,3.06-3.06v-.11a4.86,4.86,0,0,1,3-4.5l.1,0a3,3,0,0,0,1.66-1.66,3.06,3.06,0,0,0,0-2.34,4.85,4.85,0,0,1,1-5.33h0a3.06,3.06,0,0,0,0-4.32l-.08-.08a4.87,4.87,0,0,1-1.06-5.3l0-.1a3.06,3.06,0,0,0-1.67-4,4.86,4.86,0,0,1-3-4.51A3.06,3.06,0,0,0,43.84,8.5h-.11a4.86,4.86,0,0,1-4.5-3l0-.1a3.05,3.05,0,0,0-1.66-1.65,3,3,0,0,0-2.34,0,4.85,4.85,0,0,1-5.33-1,3.07,3.07,0,0,0-4.32,0l-.08.08a4.86,4.86,0,0,1-5.3,1.06l-.1,0a3.06,3.06,0,0,0-4,1.67,4.86,4.86,0,0,1-4.51,3A3.06,3.06,0,0,0,8.5,11.56v.11a4.88,4.88,0,0,1-3,4.5l-.11,0a3.07,3.07,0,0,0-1.64,4,4.86,4.86,0,0,1-1,5.33,3.06,3.06,0,0,0,0,4.32l.08.08a4.87,4.87,0,0,1,1.06,5.3l0,.1a3.06,3.06,0,0,0,1.67,4,4.88,4.88,0,0,1,3,4.51,3.06,3.06,0,0,0,3.06,3.06h.11a4.87,4.87,0,0,1,4.5,3l0,.1a3.06,3.06,0,0,0,4,1.64A5,5,0,0,1,22.1,51.26ZM53.33,30.51h0Z"/></g></g></svg>