<svg xmlns="http://www.w3.org/2000/svg" viewBox="0 0 1333.34 1300.01" shape-rendering="geometricPrecision" text-rendering="geometricPrecision" image-rendering="optimizeQuality" fill-rule="evenodd" clip-rule="evenodd"><g fill-rule="nonzero"><path fill="#12002c" d="M55.55 55.55h1222.23v1188.9H55.55z"/><path d="M55.55 55.55h1222.23v1188.9H55.55V55.55zM0 1300.01h1333.34V0H0v1300.01zm943.33-673.34c28.33 0 38.33 0 41.11-1.11 0-3.89 1.11-6.67 1.11-9.44 0-30-14.44-85.56-72.22-85.56-53.33 0-76.11 46.67-81.67 96.11h111.67zm-112.78 76.11c1.11 75 36.67 125.56 121.11 125.56 32.78 0 61.11-4.44 90.56-17.22 3.89-1.67 6.67-1.11 6.67 3.89v69.45c0 5.56-1.67 8.33-5.56 11.11-29.44 14.44-66.11 21.11-111.67 21.11-146.67 0-201.67-108.33-201.67-228.89 0-131.11 67.78-238.33 187.22-238.33 121.11 0 163.34 101.67 163.34 184.45 0 26.67-1.67 48.33-4.44 58.89-1.11 4.44-2.78 6.11-7.22 7.22-11.11 1.67-43.89 3.89-92.78 3.89H830.55v-1.12zm-297.78-56.67C517.21 584.44 479.44 450 465.55 385h-1.11c-11.67 65-42.22 175-65 261.11h133.34zm-156.11 90l-43.89 166.11c-1.11 4.44-2.78 6.11-8.33 6.11h-81.67c-5.56 0-6.67-1.67-5.56-8.33l157.78-551.67c2.78-10 4.44-17.78 5.56-45.55 0-3.89 1.67-5.56 4.44-5.56h116.67c3.89 0 5.56 1.11 6.67 5.56L705 901.12c1.11 4.44 0 7.22-4.44 7.22h-91.67c-4.44 0-7.22-1.67-8.33-5.56L555 736.11H376.67z" fill="#d8a1ff"/></g></svg>