<svg xmlns="http://www.w3.org/2000/svg" viewBox="0 0 1333.34 1300.01" shape-rendering="geometricPrecision" text-rendering="geometricPrecision" image-rendering="optimizeQuality" fill-rule="evenodd" clip-rule="evenodd"><g fill-rule="nonzero"><path fill="#180024" d="M55.55 55.55h1222.23v1188.9H55.55z"/><path d="M55.55 55.55h1222.23v1188.9H55.55V55.55zM0 1300.01h1333.34V0H0v1300.01zm800-751.12c0-6.67 0-22.78-2.78-53.89 0-4.44.56-5.56 4.44-7.22 33.89-13.89 113.33-38.33 203.34-38.33 4.44 0 6.67 1.11 6.67 5.56v80.56c0 4.44-1.67 5.56-6.11 5.56-35-1.67-85.56 2.78-105 11.11v350c0 4.44-1.67 6.67-6.67 6.67h-87.22c-4.44 0-6.67-1.67-6.67-6.67V548.91zm-355.56 50.56c12.78 1.11 22.78 1.11 45 1.11 65 0 126.11-22.78 126.11-111.11 0-70.56-43.33-106.11-117.78-106.11-22.22 0-43.33 1.11-53.33 1.67v214.45zm-98.33-295c0-3.89 1.11-6.67 5.56-6.67 35.56-1.67 87.78-2.78 142.78-2.78 153.89 0 221.11 84.45 221.11 192.78 0 141.11-102.22 201.67-227.78 201.67-21.11 0-28.33-1.11-43.33-1.11v213.34c0 4.44-1.67 6.67-6.67 6.67h-85.56c-4.44 0-6.67-1.67-6.67-6.67V304.45h.56z" fill="#e579ff"/></g></svg>