<svg xmlns="http://www.w3.org/2000/svg" viewBox="0 0 43.31 56.01"><defs><style>.cls-1{fill:#fff;}</style></defs><title>projects</title><g id="Layer_2" data-name="Layer 2"><g id="Ñëîé_1" data-name="Ñëîé 1"><path class="cls-1" d="M38.9,56H4.41A4.42,4.42,0,0,1,0,51.6V4.41A4.42,4.42,0,0,1,4.41,0H38.9a4.42,4.42,0,0,1,4.41,4.41V51.6A4.42,4.42,0,0,1,38.9,56ZM4.41,1.82A2.59,2.59,0,0,0,1.82,4.41V51.6a2.59,2.59,0,0,0,2.59,2.59H38.9a2.59,2.59,0,0,0,2.59-2.59V4.41A2.59,2.59,0,0,0,38.9,1.82Z"/><path class="cls-1" d="M36.53,7.24H6.78a.91.91,0,0,1-.91-.91V.91A.91.91,0,0,1,6.78,0H36.53a.9.9,0,0,1,.9.91V6.33A.9.9,0,0,1,36.53,7.24ZM7.69,5.42H35.62V1.82H7.69Z"/><path class="cls-1" d="M11.45,22a.9.9,0,0,1-.64-.27L8.53,19.48A.91.91,0,0,1,9.81,18.2l1.64,1.64,3.93-3.93a.91.91,0,0,1,1.28,1.29l-4.57,4.56A.89.89,0,0,1,11.45,22Z"/><path class="cls-1" d="M11.45,33.44a.93.93,0,0,1-.64-.26L8.53,30.89a.89.89,0,0,1,0-1.28.91.91,0,0,1,1.28,0l1.64,1.64,3.93-3.92a.91.91,0,0,1,1.28,1.28l-4.57,4.57A.92.92,0,0,1,11.45,33.44Z"/><path class="cls-1" d="M11.45,44.86a.9.9,0,0,1-.64-.27L8.53,42.31A.91.91,0,0,1,9.81,41l1.64,1.65,3.93-3.93A.91.91,0,0,1,16.66,40l-4.57,4.56A.89.89,0,0,1,11.45,44.86Z"/><path class="cls-1" d="M34.14,22h-13a.91.91,0,0,1,0-1.82h13a.91.91,0,1,1,0,1.82Z"/><path class="cls-1" d="M34.14,33.44h-13a.91.91,0,0,1,0-1.81h13a.91.91,0,1,1,0,1.81Z"/><path class="cls-1" d="M34.14,44.86h-13a.91.91,0,0,1,0-1.82h13a.91.91,0,1,1,0,1.82Z"/></g></g></svg>